/* XPM */
static char * play_xpm[] = {
"16 16 6 1",
" 	c None",
".	c #008080",
"+	c #2C9E9E",
"@	c #028686",
"#	c #3EABAA",
"$	c #028888",
"                ",
"      .         ",
"      +@        ",
"      #$.       ",
"      #$..      ",
"      #$...     ",
"      #$....    ",
"      #$.....   ",
"      #$.....   ",
"      #$....    ",
"      #$...     ",
"      #$..      ",
"      #$.       ",
"      +@        ",
"      .         ",
"                "};
