/* XPM */
static char * pause_xpm[] = {
"16 16 6 1",
" 	c None",
".	c #008080",
"+	c #36ABAA",
"@	c #2C9E9E",
"#	c #4EBEBD",
"$	c #3EABAA",
"                ",
"     ..  ..     ",
"     +.  @.     ",
"     #.  $.     ",
"     #.  $.     ",
"     #.  $.     ",
"     #.  $.     ",
"     #.  $.     ",
"     #.  $.     ",
"     #.  $.     ",
"     #.  $.     ",
"     #.  $.     ",
"     #.  $.     ",
"     +.  @.     ",
"     ..  ..     ",
"                "};
