/* XPM */
static char * step_xpm[] = {
"16 16 8 1",
" 	c None",
".	c #008080",
"+	c #28A09F",
"@	c #2C9E9E",
"#	c #028686",
"$	c #39ADAD",
"%	c #3EABAA",
"&	c #028888",
"                ",
"   .. .         ",
"   ++ @#        ",
"   $$ %&.       ",
"   $$ %&..      ",
"   $$ %&...     ",
"   $$ %&....    ",
"   $$ %&.....   ",
"   $$ %&.....   ",
"   $$ %&....    ",
"   $$ %&...     ",
"   $$ %&..      ",
"   $$ %&.       ",
"   ++ @#        ",
"   .. .         ",
"                "};
