/* XPM */
static char * stop_xpm[] = {
"16 16 5 1",
" 	c None",
".	c #008282",
"+	c #008080",
"@	c #008787",
"#	c #008181",
"                ",
"                ",
"   .+++++++++   ",
"   @++++++++++  ",
"   @++++++++++  ",
"   @++++++++++  ",
"   @++++++++++  ",
"   @++++++++++  ",
"   @++++++++++  ",
"   @++++++++++  ",
"   @++++++++++  ",
"   @++++++++++  ",
"   @++++++++++  ",
"   #+++++++++   ",
"                ",
"                "};
