/* XPM */
static char * stop_xpm[] = {
"16 16 3 1",
" 	c None",
".	c #008080",
"+	c #008787",
"                ",
"                ",
"    .........   ",
"   .+.........  ",
"   .+.........  ",
"   .+.........  ",
"   .+.........  ",
"   .+.........  ",
"   .+.........  ",
"   .+.........  ",
"   .+.........  ",
"   .+.........  ",
"   .+.........  ",
"    .........   ",
"                ",
"                "};
